<svg xmlns="http://www.w3.org/2000/svg" baseProfile="full" version="1.1" style="fill: none;" width="1320px" height="720px"><path style="stroke-width: 15px; stroke-linecap: round; stroke-linejoin: round; stroke: rgb(106, 106, 106); fill: none;" d=""/><path style="stroke-width: 15px; stroke-linecap: round; stroke-linejoin: round; stroke: rgb(74, 74, 74); fill: none;" d=""/><path style="stroke-width: 16px; stroke-linecap: round; stroke-linejoin: round; stroke: rgb(10, 10, 10); fill: none;" d="M585,435 L585,435 L585,435 L585,435 L585,435 L585,435 L585,435 L585,435 M690,435 L690,435 L690,435 L690,435 L690,435 L690,435 M630,435 L630,435 L630,405 L615,390 L585,390 L585,435 L630,435 M660,435 L660,435 L660,390 L630,360 L585,360 M630,360 L630,360 L660,330 M690,435 L690,435 L690,405 L705,390 L735,390 L735,435 L690,435 M555,405 L555,405 L555,315 M615,465 L615,465 L705,465 M555,435 L555,435 L555,450 L570,465 L585,465 M735,465 L735,465 L750,465 L765,450 L765,435 M615,465 L615,465 L615,495 M705,495 L705,495 L705,465 M525,405 L525,405 L555,405 M525,315 L525,315 L555,315 M645,495 L645,495 L675,495 L675,540 L645,540 L645,495 M525,375 L525,375 L525,345 L480,345 L480,375 L525,375 M705,525 L705,525 L735,525 L735,495 L765,495 M615,525 L615,525 L585,525 L585,495 L555,495 M495,405 L495,405 L495,435 L525,435 L525,465 M495,315 L495,315 L495,285 L525,285 L525,255 M555,525 L555,525 L525,525 L525,495 L495,495 L495,465 M495,525 L495,525 L495,570 L465,570 L450,555 L450,525 L495,525 M525,555 L525,555 L615,555 M465,495 L465,495 L465,405 M495,255 L495,255 L495,225 L525,225 L525,195 L555,195 M495,195 L495,195 L495,150 L465,150 L450,165 L450,195 L495,195 M465,315 L465,315 L465,225 M525,165 L525,165 L615,165 M645,570 L645,570 L645,585 L600,585 M675,570 L675,570 L675,585 L720,585 M450,375 L450,375 L435,375 L435,420 M450,345 L450,345 L435,345 L435,300 M420,570 L420,570 L450,600 L480,600 M420,540 L420,540 L420,570 M420,180 L420,180 L420,150 L450,120 L480,120 M420,510 L420,510 L420,495 L435,495 L435,450 M435,270 L435,270 L435,225 L420,225 L420,210 M510,600 L510,600 L525,600 L525,585 L570,585 M570,135 L570,135 L525,135 L525,120 L510,120 M405,255 L405,255 L405,315 L375,315 L375,285 L405,255 M405,345 L405,345 L375,345 L375,375 L405,375 L405,345 M405,405 L405,405 L405,465 L375,435 L375,405 L405,405 M645,615 L645,615 L675,615 L675,645 L645,645 L645,615 M615,645 L615,645 L585,645 L555,615 L615,615 L615,645 M705,615 L705,615 L765,615 L735,645 L705,645 L705,615 M360,465 L360,465 L390,495 L390,555 M360,255 L360,255 L390,225 L390,225 L390,165 M465,630 L465,630 L525,630 L555,660 M465,90 L465,90 L525,90 L555,60 M345,435 L345,435 L345,435 L345,435 L345,285 M555,60 L555,60 L555,60 L555,60 L555,60 M585,675 L585,675 L735,675 M360,525 L360,525 L240,525 M315,360 L315,360 L120,360 M360,195 L360,195 L240,195 M315,405 L315,405 L315,390 L270,390 M315,315 L315,315 L315,330 L270,330 M735,285 L735,285 L735,285 L735,285 L735,285 L735,285 L735,285 L735,285 M630,285 L630,285 L630,285 L630,285 L630,285 L630,285 M690,285 L690,285 L690,315 L705,330 L735,330 L735,285 L690,285 M660,285 L660,285 L660,330 L690,360 L735,360 M690,360 L690,360 L660,390 M630,285 L630,285 L630,315 L615,330 L585,330 L585,285 L630,285 M765,315 L765,315 L765,405 M705,255 L705,255 L615,255 M765,285 L765,285 L765,270 L750,255 L735,255 M585,255 L585,255 L570,255 L555,270 L555,285 M705,255 L705,255 L705,225 M615,225 L615,225 L615,255 M795,315 L795,315 L765,315 M795,405 L795,405 L765,405 M675,225 L675,225 L645,225 L645,180 L675,180 L675,225 M795,345 L795,345 L795,375 L840,375 L840,345 L795,345 M615,195 L615,195 L585,195 L585,225 L555,225 M705,195 L705,195 L735,195 L735,225 L765,225 M825,315 L825,315 L825,285 L795,285 L795,255 M825,405 L825,405 L825,435 L795,435 L795,465 M765,195 L765,195 L795,195 L795,225 L825,225 L825,255 M825,195 L825,195 L825,150 L855,150 L870,165 L870,195 L825,195 M795,165 L795,165 L705,165 M855,225 L855,225 L855,315 M825,465 L825,465 L825,495 L795,495 L795,525 L765,525 M825,525 L825,525 L825,570 L855,570 L870,555 L870,525 L825,525 M855,405 L855,405 L855,495 M795,555 L795,555 L705,555 M675,150 L675,150 L675,135 L720,135 M645,150 L645,150 L645,135 L600,135 M870,345 L870,345 L885,345 L885,300 M870,375 L870,375 L885,375 L885,420 M900,150 L900,150 L870,120 L840,120 M900,180 L900,180 L900,150 M900,540 L900,540 L900,570 L870,600 L840,600 M900,210 L900,210 L900,225 L885,225 L885,270 M885,450 L885,450 L885,495 L900,495 L900,510 M810,120 L810,120 L795,120 L795,135 L750,135 M750,585 L750,585 L795,585 L795,600 L810,600 M915,465 L915,465 L915,405 L945,405 L945,435 L915,465 M915,375 L915,375 L945,375 L945,345 L915,345 L915,375 M915,315 L915,315 L915,255 L945,285 L945,315 L915,315 M675,105 L675,105 L645,105 L645,75 L675,75 L675,105 M705,75 L705,75 L735,75 L765,105 L705,105 L705,75 M615,105 L615,105 L555,105 L585,75 L615,75 L615,105 M960,255 L960,255 L930,225 L930,165 M960,465 L960,465 L930,495 L930,495 L930,555 M855,90 L855,90 L795,90 L765,60 M855,630 L855,630 L795,630 L765,660 M975,285 L975,285 L975,285 L975,285 L975,435 M765,660 L765,660 L765,660 L765,660 L765,660 M735,45 L735,45 L585,45 M960,195 L960,195 L1080,195 M1005,360 L1005,360 L1200,360 M960,525 L960,525 L1080,525 M1005,315 L1005,315 L1005,330 L1050,330 M1005,405 L1005,405 L1005,390 L1050,390 "/></svg>