<svg id="visual" viewBox="0 0 1200 1200" width="1200" height="1200" xmlns="http://www.w3.org/2000/svg" xmlns:xlink="http://www.w3.org/1999/xlink" version="1.1"><rect x="0" y="0" width="1200" height="1200" fill="#fff"></rect><path d="M0 480L22.2 485.3C44.3 490.7 88.7 501.3 133.2 494C177.7 486.7 222.3 461.3 266.8 460.7C311.3 460 355.7 484 400 482.5C444.3 481 488.7 454 533.2 453C577.7 452 622.3 477 666.8 482.2C711.3 487.3 755.7 472.7 800 470.5C844.3 468.3 888.7 478.7 933.2 475.7C977.7 472.7 1022.3 456.3 1066.8 448.3C1111.3 440.3 1155.7 440.7 1177.8 440.8L1200 441L1200 1201L1177.8 1201C1155.7 1201 1111.3 1201 1066.8 1201C1022.3 1201 977.7 1201 933.2 1201C888.7 1201 844.3 1201 800 1201C755.7 1201 711.3 1201 666.8 1201C622.3 1201 577.7 1201 533.2 1201C488.7 1201 444.3 1201 400 1201C355.7 1201 311.3 1201 266.8 1201C222.3 1201 177.7 1201 133.2 1201C88.7 1201 44.3 1201 22.2 1201L0 1201Z" fill="#dedede"></path><path d="M0 645L22.2 630.2C44.3 615.3 88.7 585.7 133.2 586.7C177.7 587.7 222.3 619.3 266.8 617.3C311.3 615.3 355.7 579.7 400 563.8C444.3 548 488.7 552 533.2 568.2C577.7 584.3 622.3 612.7 666.8 618.5C711.3 624.3 755.7 607.7 800 599.3C844.3 591 888.7 591 933.2 584.3C977.7 577.7 1022.3 564.3 1066.8 548.3C1111.3 532.3 1155.7 513.7 1177.8 504.3L1200 495L1200 1201L1177.8 1201C1155.7 1201 1111.3 1201 1066.8 1201C1022.3 1201 977.7 1201 933.2 1201C888.7 1201 844.3 1201 800 1201C755.7 1201 711.3 1201 666.8 1201C622.3 1201 577.7 1201 533.2 1201C488.7 1201 444.3 1201 400 1201C355.7 1201 311.3 1201 266.8 1201C222.3 1201 177.7 1201 133.2 1201C88.7 1201 44.3 1201 22.2 1201L0 1201Z" fill="#c4c4c4"></path><path d="M0 638L22.2 646.2C44.3 654.3 88.7 670.7 133.2 677.2C177.7 683.7 222.3 680.3 266.8 676.3C311.3 672.3 355.7 667.7 400 662.7C444.3 657.7 488.7 652.3 533.2 644.5C577.7 636.7 622.3 626.3 666.8 612.8C711.3 599.3 755.7 582.7 800 589.7C844.3 596.7 888.7 627.3 933.2 624.8C977.7 622.3 1022.3 586.7 1066.8 593.3C1111.3 600 1155.7 649 1177.8 673.5L1200 698L1200 1201L1177.8 1201C1155.7 1201 1111.3 1201 1066.8 1201C1022.3 1201 977.7 1201 933.2 1201C888.7 1201 844.3 1201 800 1201C755.7 1201 711.3 1201 666.8 1201C622.3 1201 577.7 1201 533.2 1201C488.7 1201 444.3 1201 400 1201C355.7 1201 311.3 1201 266.8 1201C222.3 1201 177.7 1201 133.2 1201C88.7 1201 44.3 1201 22.2 1201L0 1201Z" fill="#ababab"></path><path d="M0 638L22.2 660C44.3 682 88.7 726 133.2 726.5C177.7 727 222.3 684 266.8 660C311.3 636 355.7 631 400 629.3C444.3 627.7 488.7 629.3 533.2 643.8C577.7 658.3 622.3 685.7 666.8 697.5C711.3 709.3 755.7 705.7 800 705.7C844.3 705.7 888.7 709.3 933.2 704.5C977.7 699.7 1022.3 686.3 1066.8 687.8C1111.3 689.3 1155.7 705.7 1177.8 713.8L1200 722L1200 1201L1177.8 1201C1155.7 1201 1111.3 1201 1066.8 1201C1022.3 1201 977.7 1201 933.2 1201C888.7 1201 844.3 1201 800 1201C755.7 1201 711.3 1201 666.8 1201C622.3 1201 577.7 1201 533.2 1201C488.7 1201 444.3 1201 400 1201C355.7 1201 311.3 1201 266.8 1201C222.3 1201 177.7 1201 133.2 1201C88.7 1201 44.3 1201 22.2 1201L0 1201Z" fill="#929292"></path><path d="M0 797L22.2 780.5C44.3 764 88.7 731 133.2 729.8C177.7 728.7 222.3 759.3 266.8 777.7C311.3 796 355.7 802 400 806.2C444.3 810.3 488.7 812.7 533.2 799.8C577.7 787 622.3 759 666.8 756.8C711.3 754.7 755.7 778.3 800 776.3C844.3 774.3 888.7 746.7 933.2 738.3C977.7 730 1022.3 741 1066.8 753.5C1111.3 766 1155.7 780 1177.8 787L1200 794L1200 1201L1177.8 1201C1155.7 1201 1111.3 1201 1066.8 1201C1022.3 1201 977.7 1201 933.2 1201C888.7 1201 844.3 1201 800 1201C755.7 1201 711.3 1201 666.8 1201C622.3 1201 577.7 1201 533.2 1201C488.7 1201 444.3 1201 400 1201C355.7 1201 311.3 1201 266.8 1201C222.3 1201 177.7 1201 133.2 1201C88.7 1201 44.3 1201 22.2 1201L0 1201Z" fill="#7b7b7b"></path><path d="M0 831L22.2 825.7C44.3 820.3 88.7 809.7 133.2 815.8C177.7 822 222.3 845 266.8 842.8C311.3 840.7 355.7 813.3 400 812.5C444.3 811.7 488.7 837.3 533.2 850.2C577.7 863 622.3 863 666.8 854.8C711.3 846.7 755.7 830.3 800 819C844.3 807.7 888.7 801.3 933.2 803.7C977.7 806 1022.3 817 1066.8 828.2C1111.3 839.3 1155.7 850.7 1177.8 856.3L1200 862L1200 1201L1177.8 1201C1155.7 1201 1111.3 1201 1066.8 1201C1022.3 1201 977.7 1201 933.2 1201C888.7 1201 844.3 1201 800 1201C755.7 1201 711.3 1201 666.8 1201C622.3 1201 577.7 1201 533.2 1201C488.7 1201 444.3 1201 400 1201C355.7 1201 311.3 1201 266.8 1201C222.3 1201 177.7 1201 133.2 1201C88.7 1201 44.3 1201 22.2 1201L0 1201Z" fill="#646464"></path><path d="M0 939L22.2 925.7C44.3 912.3 88.7 885.7 133.2 883.7C177.7 881.7 222.3 904.3 266.8 907.8C311.3 911.3 355.7 895.7 400 885C444.3 874.3 488.7 868.7 533.2 863.8C577.7 859 622.3 855 666.8 865.2C711.3 875.3 755.7 899.7 800 907.7C844.3 915.7 888.7 907.3 933.2 909.7C977.7 912 1022.3 925 1066.8 923.8C1111.3 922.7 1155.7 907.3 1177.8 899.7L1200 892L1200 1201L1177.8 1201C1155.7 1201 1111.3 1201 1066.8 1201C1022.3 1201 977.7 1201 933.2 1201C888.7 1201 844.3 1201 800 1201C755.7 1201 711.3 1201 666.8 1201C622.3 1201 577.7 1201 533.2 1201C488.7 1201 444.3 1201 400 1201C355.7 1201 311.3 1201 266.8 1201C222.3 1201 177.7 1201 133.2 1201C88.7 1201 44.3 1201 22.2 1201L0 1201Z" fill="#4d4d4d"></path><path d="M0 967L22.2 969.8C44.3 972.7 88.7 978.3 133.2 978.5C177.7 978.7 222.3 973.3 266.8 974.5C311.3 975.7 355.7 983.3 400 987.3C444.3 991.3 488.7 991.7 533.2 988.8C577.7 986 622.3 980 666.8 980C711.3 980 755.7 986 800 987.2C844.3 988.3 888.7 984.7 933.2 976.2C977.7 967.7 1022.3 954.3 1066.8 949.8C1111.3 945.3 1155.7 949.7 1177.8 951.8L1200 954L1200 1201L1177.8 1201C1155.7 1201 1111.3 1201 1066.8 1201C1022.3 1201 977.7 1201 933.2 1201C888.7 1201 844.3 1201 800 1201C755.7 1201 711.3 1201 666.8 1201C622.3 1201 577.7 1201 533.2 1201C488.7 1201 444.3 1201 400 1201C355.7 1201 311.3 1201 266.8 1201C222.3 1201 177.7 1201 133.2 1201C88.7 1201 44.3 1201 22.2 1201L0 1201Z" fill="#383838"></path><path d="M0 1020L22.2 1025.2C44.3 1030.3 88.7 1040.7 133.2 1045.2C177.7 1049.7 222.3 1048.3 266.8 1040.7C311.3 1033 355.7 1019 400 1012C444.3 1005 488.7 1005 533.2 1006.8C577.7 1008.7 622.3 1012.3 666.8 1014C711.3 1015.7 755.7 1015.3 800 1018C844.3 1020.7 888.7 1026.3 933.2 1025.7C977.7 1025 1022.3 1018 1066.8 1017.3C1111.3 1016.7 1155.7 1022.3 1177.8 1025.2L1200 1028L1200 1201L1177.8 1201C1155.7 1201 1111.3 1201 1066.8 1201C1022.3 1201 977.7 1201 933.2 1201C888.7 1201 844.3 1201 800 1201C755.7 1201 711.3 1201 666.8 1201C622.3 1201 577.7 1201 533.2 1201C488.7 1201 444.3 1201 400 1201C355.7 1201 311.3 1201 266.8 1201C222.3 1201 177.7 1201 133.2 1201C88.7 1201 44.3 1201 22.2 1201L0 1201Z" fill="#242424"></path><path d="M0 1072L22.2 1073.5C44.3 1075 88.7 1078 133.2 1081.3C177.7 1084.7 222.3 1088.3 266.8 1092.8C311.3 1097.3 355.7 1102.7 400 1100.8C444.3 1099 488.7 1090 533.2 1084.5C577.7 1079 622.3 1077 666.8 1080C711.3 1083 755.7 1091 800 1092C844.3 1093 888.7 1087 933.2 1083.8C977.7 1080.7 1022.3 1080.3 1066.8 1083.2C1111.3 1086 1155.7 1092 1177.8 1095L1200 1098L1200 1201L1177.8 1201C1155.7 1201 1111.3 1201 1066.8 1201C1022.3 1201 977.7 1201 933.2 1201C888.7 1201 844.3 1201 800 1201C755.7 1201 711.3 1201 666.8 1201C622.3 1201 577.7 1201 533.2 1201C488.7 1201 444.3 1201 400 1201C355.7 1201 311.3 1201 266.8 1201C222.3 1201 177.7 1201 133.2 1201C88.7 1201 44.3 1201 22.2 1201L0 1201Z" fill="#111111"></path></svg>