<svg id="visual" viewBox="0 0 1200 600" width="1200" height="600" xmlns="http://www.w3.org/2000/svg" xmlns:xlink="http://www.w3.org/1999/xlink" version="1.1"><rect x="0" y="0" width="1200" height="600" fill="#fff"></rect><path d="M0 490L25 473C50 456 100 422 150 414.5C200 407 250 426 300 448C350 470 400 495 450 496.7C500 498.3 550 476.7 600 477.3C650 478 700 501 750 512C800 523 850 522 900 516C950 510 1000 499 1050 477.2C1100 455.3 1150 422.7 1175 406.3L1200 390L1200 0L1175 0C1150 0 1100 0 1050 0C1000 0 950 0 900 0C850 0 800 0 750 0C700 0 650 0 600 0C550 0 500 0 450 0C400 0 350 0 300 0C250 0 200 0 150 0C100 0 50 0 25 0L0 0Z" fill="#ffffff"></path><path d="M0 366L25 369C50 372 100 378 150 384.7C200 391.3 250 398.7 300 409.5C350 420.3 400 434.7 450 434.7C500 434.7 550 420.3 600 407.7C650 395 700 384 750 378.8C800 373.7 850 374.3 900 382.5C950 390.7 1000 406.3 1050 408.3C1100 410.3 1150 398.7 1175 392.8L1200 387L1200 0L1175 0C1150 0 1100 0 1050 0C1000 0 950 0 900 0C850 0 800 0 750 0C700 0 650 0 600 0C550 0 500 0 450 0C400 0 350 0 300 0C250 0 200 0 150 0C100 0 50 0 25 0L0 0Z" fill="#ebf6fd"></path><path d="M0 262L25 271C50 280 100 298 150 308.5C200 319 250 322 300 315.8C350 309.7 400 294.3 450 305.8C500 317.3 550 355.7 600 361.8C650 368 700 342 750 335.7C800 329.3 850 342.7 900 339.7C950 336.7 1000 317.3 1050 316.8C1100 316.3 1150 334.7 1175 343.8L1200 353L1200 0L1175 0C1150 0 1100 0 1050 0C1000 0 950 0 900 0C850 0 800 0 750 0C700 0 650 0 600 0C550 0 500 0 450 0C400 0 350 0 300 0C250 0 200 0 150 0C100 0 50 0 25 0L0 0Z" fill="#d6eefa"></path><path d="M0 230L25 239.2C50 248.3 100 266.7 150 270C200 273.3 250 261.7 300 265.3C350 269 400 288 450 294.5C500 301 550 295 600 287C650 279 700 269 750 269.8C800 270.7 850 282.3 900 275.8C950 269.3 1000 244.7 1050 245.2C1100 245.7 1150 271.3 1175 284.2L1200 297L1200 0L1175 0C1150 0 1100 0 1050 0C1000 0 950 0 900 0C850 0 800 0 750 0C700 0 650 0 600 0C550 0 500 0 450 0C400 0 350 0 300 0C250 0 200 0 150 0C100 0 50 0 25 0L0 0Z" fill="#c0e5f8"></path><path d="M0 192L25 189.5C50 187 100 182 150 182.5C200 183 250 189 300 199C350 209 400 223 450 227.2C500 231.3 550 225.7 600 224.3C650 223 700 226 750 231.2C800 236.3 850 243.7 900 245.2C950 246.7 1000 242.3 1050 241.7C1100 241 1150 244 1175 245.5L1200 247L1200 0L1175 0C1150 0 1100 0 1050 0C1000 0 950 0 900 0C850 0 800 0 750 0C700 0 650 0 600 0C550 0 500 0 450 0C400 0 350 0 300 0C250 0 200 0 150 0C100 0 50 0 25 0L0 0Z" fill="#a9dcf6"></path><path d="M0 114L25 125.8C50 137.7 100 161.3 150 159.7C200 158 250 131 300 116.7C350 102.3 400 100.7 450 103.3C500 106 550 113 600 122C650 131 700 142 750 153C800 164 850 175 900 169C950 163 1000 140 1050 124.5C1100 109 1150 101 1175 97L1200 93L1200 0L1175 0C1150 0 1100 0 1050 0C1000 0 950 0 900 0C850 0 800 0 750 0C700 0 650 0 600 0C550 0 500 0 450 0C400 0 350 0 300 0C250 0 200 0 150 0C100 0 50 0 25 0L0 0Z" fill="#91d4f3"></path><path d="M0 60L25 56.8C50 53.7 100 47.3 150 44C200 40.7 250 40.3 300 48.5C350 56.7 400 73.3 450 81.7C500 90 550 90 600 88.5C650 87 700 84 750 87C800 90 850 99 900 91C950 83 1000 58 1050 58.7C1100 59.3 1150 85.7 1175 98.8L1200 112L1200 0L1175 0C1150 0 1100 0 1050 0C1000 0 950 0 900 0C850 0 800 0 750 0C700 0 650 0 600 0C550 0 500 0 450 0C400 0 350 0 300 0C250 0 200 0 150 0C100 0 50 0 25 0L0 0Z" fill="#75cbf1"></path></svg>